<svg width="31" height="31" viewBox="0 0 31 31" fill="none" xmlns="http://www.w3.org/2000/svg">
<path d="M16.751 22.8387C16.5324 23.0778 16.2235 23.2139 15.8995 23.2139C15.5755 23.2139 15.2666 23.0778 15.048 22.8387L8.89408 16.1079C8.46408 15.6376 8.49676 14.9078 8.96707 14.4778C9.43739 14.0478 10.1672 14.0804 10.5972 14.5507L14.7457 19.0881V2.0601C14.7457 1.42285 15.2623 0.90625 15.8995 0.90625C16.5367 0.90625 17.0533 1.42285 17.0533 2.0601V19.0881L21.2018 14.5507C21.6318 14.0804 22.3616 14.0478 22.832 14.4778C23.3023 14.9078 23.3349 15.6376 22.9049 16.1079L16.751 22.8387Z" fill="#4D4D4D"/>
<path d="M3.20711 20.5217C3.20711 19.8844 2.69052 19.3678 2.05326 19.3678C1.41601 19.3678 0.899415 19.8844 0.899415 20.5217V20.6061C0.899384 22.7101 0.899353 24.406 1.07868 25.7398C1.26486 27.1246 1.66315 28.2904 2.58918 29.2164C3.51521 30.1426 4.68117 30.5409 6.06595 30.727C7.39975 30.9063 9.09563 30.9063 11.1996 30.9063H20.5993C22.7033 30.9063 24.3991 30.9063 25.733 30.727C27.1177 30.5409 28.2836 30.1426 29.2097 29.2164C30.1357 28.2904 30.534 27.1246 30.7202 25.7398C30.8994 24.406 30.8994 22.7101 30.8994 20.6061V20.5217C30.8994 19.8844 30.3828 19.3678 29.7456 19.3678C29.1083 19.3678 28.5917 19.8844 28.5917 20.5217C28.5917 22.73 28.5893 24.2701 28.4331 25.4323C28.2813 26.5612 28.0037 27.1589 27.5779 27.5847C27.152 28.0106 26.5543 28.2881 25.4254 28.44C24.2633 28.5961 22.7231 28.5986 20.5148 28.5986H11.284C9.07571 28.5986 7.53552 28.5961 6.37345 28.44C5.24457 28.2881 4.64675 28.0106 4.22097 27.5847C3.79518 27.1589 3.51757 26.5612 3.3658 25.4323C3.20955 24.2701 3.20711 22.73 3.20711 20.5217Z" fill="#4D4D4D"/>
</svg>
