<svg width="44" height="30" viewBox="0 0 44 30" fill="none" xmlns="http://www.w3.org/2000/svg">
<path d="M43.4487 2.50024V27.5C43.4487 28.9167 42.272 30 40.7332 30H38.0176V7.31187L21.7244 18.0834L5.43109 7.31187V30H2.71555C1.17493 30 0 28.9167 0 27.5V2.50024C0 1.79192 0.293279 1.16692 0.780267 0.720259C1.03441 0.487527 1.33655 0.303938 1.66891 0.18029C2.00126 0.0566423 2.35712 -0.00456623 2.71555 0.000265283H3.62073L21.7244 12.0835L39.828 0.000265283H40.7332C41.5026 0.000265283 42.1815 0.270263 42.6685 0.720259C43.1573 1.16692 43.4487 1.79192 43.4487 2.50024Z" fill="white"/>
</svg>
