<svg width="1436" height="178" viewBox="0 0 1436 178" fill="none" xmlns="http://www.w3.org/2000/svg">
<g clip-path="url(#clip0_5_19)">
<path fill-rule="evenodd" clip-rule="evenodd" d="M1413.63 22.3676H22.3676V155.455H1413.63V22.3676ZM0 0V177.822H1436V0H0Z" fill="#4D4D4D"/>
<path d="M61.9237 60.3484H106.731V39.5912H61.9237V60.3484ZM61.9237 99.5722H105.299V80.1034H61.9237V99.5722ZM45.8906 39.5912V139.798H69.0814V39.5912H45.8906Z" fill="#4D4D4D"/>
<path d="M125.016 39.5912V139.798H149.638V39.5912H125.016Z" fill="#4D4D4D"/>
<path d="M170.87 39.5912V139.798H235.288V119.041H195.062V39.5912H170.87Z" fill="#4D4D4D"/>
<path d="M246.5 39.5912V139.798H271.122V39.5912H246.5Z" fill="#4D4D4D"/>
<path d="M292.354 39.5912V139.798H316.546V39.5912H292.354ZM307.528 59.4894H327.14C332.007 59.4894 335.824 60.5869 338.592 62.7819C341.36 64.977 342.743 68.174 342.743 72.3732C342.743 76.4769 341.36 79.6262 338.592 81.8213C335.824 84.0163 332.007 85.1138 327.14 85.1138H307.528V105.012H327.14C335.633 105.012 342.743 103.724 348.47 101.147C354.291 98.4747 358.681 94.705 361.64 89.8378C364.598 84.8752 366.077 79.0536 366.077 72.3732C366.077 65.5019 364.598 59.6326 361.64 54.7654C358.681 49.8982 354.291 46.1762 348.47 43.5995C342.743 40.9273 335.633 39.5912 327.14 39.5912H307.528V59.4894Z" fill="#4D4D4D"/>
<path d="M402.158 89.6946C402.158 83.4914 403.542 78.1947 406.31 73.8047C409.077 69.4147 412.704 66.0745 417.189 63.784C421.77 61.4936 426.781 60.3484 432.22 60.3484C436.992 60.3484 441.191 60.9687 444.818 62.2093C448.444 63.3546 451.689 64.977 454.552 67.0765C457.415 69.0807 459.944 71.228 462.139 73.5184V47.4646C458.131 44.3153 453.741 41.8339 448.969 40.0207C444.198 38.2074 438.137 37.3008 430.789 37.3008C422.772 37.3008 415.376 38.5414 408.6 41.0227C401.824 43.5041 396.003 47.0829 391.136 51.7592C386.268 56.4355 382.499 61.9708 379.827 68.3649C377.154 74.7591 375.818 81.869 375.818 89.6946C375.818 97.5203 377.154 104.63 379.827 111.024C382.499 117.419 386.268 122.954 391.136 127.63C396.003 132.306 401.824 135.885 408.6 138.367C415.376 140.848 422.772 142.089 430.789 142.089C438.137 142.089 444.198 141.182 448.969 139.369C453.741 137.555 458.131 135.074 462.139 131.925V105.871C459.944 108.161 457.415 110.309 454.552 112.313C451.689 114.317 448.444 115.939 444.818 117.18C441.191 118.421 436.992 119.041 432.22 119.041C426.781 119.041 421.77 117.896 417.189 115.605C412.704 113.315 409.077 109.975 406.31 105.585C403.542 101.099 402.158 95.8025 402.158 89.6946Z" fill="#4D4D4D"/>
<path d="M488.647 97.8544H564.518V76.0951H488.647V97.8544ZM549.201 39.5912V139.798H573.394V39.5912H549.201ZM481.919 39.5912V139.798H506.112V39.5912H481.919Z" fill="#4D4D4D"/>
<path d="M594.456 39.5912V139.798H619.078V39.5912H594.456Z" fill="#4D4D4D"/>
<path d="M640.31 39.5912V139.798H665.361V39.5912H640.31ZM699.432 39.5912L658.347 87.2611L700.577 139.798H729.923L687.121 86.5453L727.776 39.5912H699.432Z" fill="#4D4D4D"/>
<path d="M794.345 104.583L777.453 116.751C779.744 121.522 782.941 125.912 787.044 129.921C791.148 133.929 795.968 137.126 801.503 139.512C807.134 141.802 813.194 142.947 819.683 142.947C824.36 142.947 828.893 142.232 833.283 140.8C837.768 139.464 841.729 137.46 845.164 134.788C848.696 132.116 851.463 128.823 853.467 124.91C855.567 120.902 856.617 116.369 856.617 111.311C856.617 107.112 855.949 103.39 854.613 100.145C853.276 96.9 851.415 94.0369 849.03 91.5556C846.739 89.0743 844.067 86.9747 841.013 85.2569C837.959 83.4436 834.667 81.869 831.135 80.5329C826.459 78.9105 822.451 77.3835 819.111 75.952C815.866 74.5205 813.337 72.9458 811.524 71.228C809.806 69.5101 808.947 67.506 808.947 65.2155C808.947 63.0205 809.853 61.2073 811.667 59.7757C813.48 58.2488 816.104 57.4853 819.54 57.4853C822.117 57.4853 824.503 58.0102 826.698 59.06C828.988 60.0143 831.04 61.3981 832.853 63.2114C834.762 64.9292 836.432 66.9811 837.864 69.367L856.33 59.06C854.613 55.6243 852.131 52.2364 848.886 48.8961C845.642 45.5559 841.538 42.7883 836.575 40.5933C831.708 38.3983 825.934 37.3008 819.254 37.3008C812.764 37.3008 806.847 38.446 801.503 40.7364C796.254 42.9315 792.055 46.1762 788.905 50.4708C785.852 54.7654 784.325 59.8712 784.325 65.7882C784.325 70.7508 785.231 74.9976 787.044 78.5287C788.858 81.9644 791.148 84.9229 793.916 87.4042C796.683 89.7901 799.594 91.7465 802.648 93.2735C805.797 94.8004 808.565 95.9934 810.951 96.8523C815.818 98.6656 819.731 100.288 822.689 101.719C825.648 103.151 827.795 104.678 829.131 106.3C830.467 107.827 831.135 109.879 831.135 112.456C831.135 115.51 829.99 117.943 827.7 119.757C825.409 121.475 822.499 122.333 818.968 122.333C815.627 122.333 812.43 121.618 809.376 120.186C806.418 118.755 803.65 116.703 801.073 114.031C798.592 111.358 796.349 108.209 794.345 104.583Z" fill="#4D4D4D"/>
<path d="M862.772 61.2073H890.258V139.798H914.45V61.2073H942.079V39.5912H862.772V61.2073Z" fill="#4D4D4D"/>
<path d="M952.321 39.5912V106.873C952.321 113.172 953.323 118.659 955.327 123.336C957.427 128.012 960.29 131.877 963.916 134.931C967.638 137.889 971.933 140.132 976.8 141.659C981.667 143.186 986.916 143.95 992.547 143.95C998.177 143.95 1003.43 143.186 1008.29 141.659C1013.26 140.132 1017.55 137.889 1021.18 134.931C1024.9 131.877 1027.76 128.012 1029.77 123.336C1031.87 118.659 1032.92 113.172 1032.92 106.873V39.5912H1008.72V105.155C1008.72 110.213 1007.39 114.317 1004.71 117.466C1002.04 120.616 997.987 122.19 992.547 122.19C987.202 122.19 983.194 120.616 980.522 117.466C977.85 114.317 976.514 110.213 976.514 105.155V39.5912H952.321Z" fill="#4D4D4D"/>
<path d="M1053.41 39.5912V139.798H1078.32V39.5912H1053.41ZM1089.2 139.798C1100.17 139.798 1109.67 137.746 1117.69 133.643C1125.7 129.539 1131.91 123.765 1136.3 116.321C1140.69 108.782 1142.88 99.9062 1142.88 89.6946C1142.88 79.3877 1140.69 70.5122 1136.3 63.0683C1131.91 55.6243 1125.7 49.8505 1117.69 45.7468C1109.67 41.6431 1100.17 39.5912 1089.2 39.5912H1069.44V61.0641H1088.34C1092.16 61.0641 1095.83 61.5413 1099.36 62.4956C1102.99 63.45 1106.14 65.0247 1108.81 67.2197C1111.58 69.4147 1113.77 72.3732 1115.4 76.0951C1117.02 79.7217 1117.83 84.2549 1117.83 89.6946C1117.83 95.1345 1117.02 99.7153 1115.4 103.437C1113.77 107.064 1111.58 109.975 1108.81 112.17C1106.14 114.365 1102.99 115.939 1099.36 116.894C1095.83 117.848 1092.16 118.325 1088.34 118.325H1069.44V139.798H1089.2Z" fill="#4D4D4D"/>
<path d="M1158.4 39.5912V139.798H1183.02V39.5912H1158.4Z" fill="#4D4D4D"/>
<path d="M1224.15 89.6946C1224.15 83.7777 1225.3 78.5765 1227.59 74.091C1229.97 69.5101 1233.27 65.9313 1237.46 63.3546C1241.76 60.7778 1246.77 59.4894 1252.5 59.4894C1258.32 59.4894 1263.33 60.7778 1267.53 63.3546C1271.73 65.9313 1274.97 69.5101 1277.26 74.091C1279.55 78.5765 1280.7 83.7777 1280.7 89.6946C1280.7 95.6116 1279.5 100.861 1277.12 105.441C1274.83 109.927 1271.53 113.458 1267.24 116.035C1263.04 118.611 1258.13 119.9 1252.5 119.9C1246.77 119.9 1241.76 118.611 1237.46 116.035C1233.27 113.458 1229.97 109.927 1227.59 105.441C1225.3 100.861 1224.15 95.6116 1224.15 89.6946ZM1198.53 89.6946C1198.53 97.4249 1199.81 104.535 1202.39 111.024C1205.06 117.514 1208.79 123.145 1213.56 127.916C1218.42 132.688 1224.15 136.41 1230.74 139.082C1237.32 141.659 1244.57 142.947 1252.5 142.947C1260.32 142.947 1267.53 141.659 1274.11 139.082C1280.7 136.41 1286.37 132.688 1291.15 127.916C1296.01 123.145 1299.74 117.514 1302.31 111.024C1304.98 104.535 1306.32 97.4249 1306.32 89.6946C1306.32 81.9644 1304.98 74.9022 1302.31 68.5081C1299.64 62.1139 1295.87 56.5787 1291 51.9024C1286.14 47.226 1280.41 43.6472 1273.82 41.1659C1267.34 38.5892 1260.23 37.3008 1252.5 37.3008C1244.86 37.3008 1237.75 38.5892 1231.17 41.1659C1224.58 43.6472 1218.85 47.226 1213.99 51.9024C1209.12 56.5787 1205.3 62.1139 1202.53 68.5081C1199.86 74.9022 1198.53 81.9644 1198.53 89.6946Z" fill="#4D4D4D"/>
<path d="M1332.85 104.583L1315.95 116.751C1318.24 121.522 1321.44 125.912 1325.54 129.921C1329.65 133.929 1334.47 137.126 1340 139.512C1345.63 141.802 1351.69 142.947 1358.18 142.947C1362.86 142.947 1367.39 142.232 1371.78 140.8C1376.27 139.464 1380.23 137.46 1383.66 134.788C1387.2 132.116 1389.96 128.823 1391.97 124.91C1394.07 120.902 1395.12 116.369 1395.12 111.311C1395.12 107.112 1394.45 103.39 1393.11 100.145C1391.78 96.9 1389.92 94.0369 1387.53 91.5556C1385.24 89.0743 1382.57 86.9747 1379.51 85.2569C1376.46 83.4436 1373.17 81.869 1369.64 80.5329C1364.96 78.9105 1360.95 77.3835 1357.61 75.952C1354.37 74.5205 1351.84 72.9458 1350.02 71.228C1348.31 69.5101 1347.45 67.506 1347.45 65.2155C1347.45 63.0205 1348.35 61.2073 1350.17 59.7757C1351.98 58.2488 1354.6 57.4853 1358.04 57.4853C1360.62 57.4853 1363 58.0102 1365.2 59.06C1367.49 60.0143 1369.54 61.3981 1371.35 63.2114C1373.26 64.9292 1374.93 66.9811 1376.36 69.367L1394.83 59.06C1393.11 55.6243 1390.63 52.2364 1387.39 48.8961C1384.14 45.5559 1380.04 42.7883 1375.08 40.5933C1370.21 38.3983 1364.43 37.3008 1357.75 37.3008C1351.26 37.3008 1345.35 38.446 1340 40.7364C1334.75 42.9315 1330.55 46.1762 1327.41 50.4708C1324.35 54.7654 1322.82 59.8712 1322.82 65.7882C1322.82 70.7508 1323.73 74.9976 1325.54 78.5287C1327.36 81.9644 1329.65 84.9229 1332.42 87.4042C1335.18 89.7901 1338.09 91.7465 1341.15 93.2735C1344.3 94.8004 1347.07 95.9934 1349.45 96.8523C1354.32 98.6656 1358.23 100.288 1361.19 101.719C1364.15 103.151 1366.3 104.678 1367.63 106.3C1368.97 107.827 1369.64 109.879 1369.64 112.456C1369.64 115.51 1368.49 117.943 1366.2 119.757C1363.91 121.475 1361 122.333 1357.47 122.333C1354.13 122.333 1350.93 121.618 1347.88 120.186C1344.92 118.755 1342.15 116.703 1339.57 114.031C1337.09 111.358 1334.85 108.209 1332.85 104.583Z" fill="#4D4D4D"/>
</g>
<defs>
<clipPath id="clip0_5_19">
<rect width="1436" height="178" fill="white"/>
</clipPath>
</defs>
</svg>
