<svg width="100" height="100" viewBox="0 0 100 100" fill="none" xmlns="http://www.w3.org/2000/svg">
<rect width="100" height="100" fill="#4D4D4D"/>
<path d="M14.8357 69V31.6567H47.5984V37.4536H21.9783V48.3486H45.9681V53.8608H21.9783V69H14.8357ZM68.4206 69.6987C64.418 69.6987 60.9761 69.276 58.0949 68.4307C55.2137 67.568 52.945 66.3172 51.2888 64.6782C49.6498 63.022 48.6664 61.0207 48.3386 58.6743L48.2868 58.312H55.3L55.3776 58.5967C55.7054 59.7871 56.4128 60.7964 57.4997 61.6245C58.5866 62.4526 60.0617 63.0737 61.925 63.4878C63.8055 63.9019 66.0743 64.1089 68.7312 64.1089C71.0085 64.1089 72.958 63.8846 74.5798 63.436C76.2015 62.9875 77.4351 62.3405 78.2805 61.4951C79.1431 60.6325 79.5744 59.5973 79.5744 58.3896V58.3638C79.5744 56.8455 78.9706 55.7155 77.7629 54.9736C76.5552 54.2145 74.459 53.6711 71.4743 53.3433L62.4943 52.5669C58.0087 52.0838 54.6703 50.9969 52.4792 49.3062C50.3054 47.6154 49.2185 45.269 49.2185 42.2671V42.2153C49.2357 39.9035 49.9603 37.9108 51.3923 36.2373C52.8243 34.5465 54.8601 33.244 57.4997 32.3296C60.1566 31.4152 63.2966 30.958 66.9196 30.958C70.6634 30.958 73.8983 31.3979 76.6242 32.2778C79.3501 33.1405 81.4981 34.3999 83.0681 36.0562C84.6553 37.7124 85.6128 39.7051 85.9406 42.0342L85.9924 42.3706H79.0051L78.9274 42.1118C78.5479 40.8524 77.8664 39.8172 76.883 39.0063C75.9169 38.1782 74.6057 37.5658 72.9494 37.1689C71.2932 36.7549 69.2746 36.5479 66.8937 36.5479C64.6337 36.5479 62.7272 36.7635 61.1745 37.1948C59.6218 37.6089 58.44 38.2214 57.6291 39.0322C56.8182 39.8431 56.4128 40.8006 56.4128 41.9048V41.9307C56.4128 43.3454 57.0253 44.4409 58.2502 45.2173C59.4751 45.9764 61.4764 46.5026 64.2541 46.7959L73.3117 47.5723C76.4172 47.9001 78.9533 48.4867 80.9201 49.332C82.9042 50.1602 84.3706 51.2902 85.3195 52.7222C86.2857 54.1369 86.7687 55.8794 86.7687 57.9497V57.9756C86.7687 60.4427 86.0441 62.5562 84.5949 64.3159C83.163 66.0584 81.0754 67.3955 78.3322 68.3271C75.6063 69.2415 72.3024 69.6987 68.4206 69.6987Z" fill="#ECE6E1"/>
</svg>
